<svg width="50px" height="50px" xmlns="http://www.w3.org/2000/svg" viewBox="0 0 44.47 20.61">
    <style>
        #front_wings {
        transform-origin: bottom;
        animation: flap 3s linear infinite alternate;
        }

        #back_wings {
        transform-origin: bottom;
        animation: flap 3s linear infinite alternate;
        }

        @keyframes flap {
        50% {
        transform: scaleY(0.5)
        }
        }
    </style>
    <g id="body">
        <path fill="#6082B6" d="M420,311h8.89a1.69,1.69,0,0,1,.11-1,2,2,0,0,1,2-1l17.65-2a5.48,5.48,0,0,1,2.35,1,5.57,5.57,0,0,1,2,3,3.39,3.39,0,0,0-3-1,3,3,0,0,0-1.54,1,15.75,15.75,0,0,1-3.46,2,19.42,19.42,0,0,1-10,1,27.87,27.87,0,0,1-5-1,41.31,41.31,0,0,0-5,0c-1.79.11-3.92.35-4,0s1-.54,1-1S420.91,311.21,420,311Z" transform="translate(-412.8 -293.62)" />
    </g>
    <g fill="#228B22" id="front_wings" data-name="front wings">
        <path d="M431.26,312.49a12.73,12.73,0,0,0-.24-2,14.36,14.36,0,0,0-1.49-3.85c-1.7-2.9-6-3.6-9.79-5.84a20.21,20.21,0,0,1-6.94-7.2,52.11,52.11,0,0,0,8.68,5c5.57,2.51,8.57,2.64,12.77,5.47A26.38,26.38,0,0,1,440,309.4Z" transform="translate(-412.8 -293.62)" />
        <path d="M453,311" transform="translate(-412.8 -293.62)" />
    </g>
    <g fill="#50C878" id="back_wings" data-name="back wings">
        <path d="M439.76,311.09a5.23,5.23,0,0,1-.35-2.35,5.32,5.32,0,0,1,1.48-3.19c1.85-1.34,3.87-2.71,6-4.05a102.12,102.12,0,0,1,10.35-5.61l-12.1,8.76a3.75,3.75,0,0,0-2.64,3.61,2.84,2.84,0,0,0,.85,1.63Z" transform="translate(-412.8 -293.62)" />
    </g>
</svg>