<svg id="eSieH4zYGnZ1" xmlns="http://www.w3.org/2000/svg" xmlns:xlink="http://www.w3.org/1999/xlink" viewBox="0 0 216 318" shape-rendering="geometricPrecision" text-rendering="geometricPrecision"><g transform="matrix(-.34202-.939693 0.939693-.34202-272.886566 1041.070233)"><path d="M549.4902,610.2132c27.8813,30.7094,7.8134,50.7448,59.8268,128.9655-5.335-25.3502-4.1119-37.3795.378-42.7728c0,0,12.0187,26.6057,30.5167,46.8339c18.6839,20.4323,40.2021,18.898,40.2021,18.898s-20.3767-20.6815,14.5881-21.1611c46.7797-.6415,73.1664,25.839,73.1664,25.839l-8.4484-31.1218c25.5089-10.6189,58.4369,48.1862,58.4369,48.1862s13.1445-22.9236-5.9121-76.4468c-9.2048-25.8544-31.0674-37.5118-31.0674-37.5118c6.2979-2.0245,9.9395-8.6844,23.747,2.3987c0,0-14.8683-39.2531-34.1348-59.9312-17.3032-18.5692-38.6747-28.1672-38.6747-28.1672c6.1412-4.7982,18.6834-2.7939,31.298-.7137-7.5545-15.1588-66.4255-43.3781-115.3881-41.5762-48.9626,1.8029-83.9847,42.2177-83.9847,42.2177s43.9123.9125,77.1774,10.3101c33.2634,9.3977,91.5143,68.9549,95.3332,75.7832c3.8187,6.8258-59.9269-52.5604-99.265-60.7994-39.3375-8.2398-87.7911.7693-87.7911.7693l-.0043.0004Z" fill="#59601d"/></g></svg>
