<svg id="ep46FbrqyaI1" xmlns="http://www.w3.org/2000/svg" xmlns:xlink="http://www.w3.org/1999/xlink" viewBox="0 0 280 351" shape-rendering="geometricPrecision" text-rendering="geometricPrecision"><g transform="translate(-41.425201-62.354198)"><g><polygon points="244.5397,318.8714 244.5385,318.8712 244.5383,318.8736" fill="#9c3403"/></g><g><path d="M289.1822,255.4566l.8928-17.8609l12.4998-8.6733l18.7503-22.0209-12.4998-.1967c3.032-20.1992-2.5095-30.6745,11.0865-50.6493-10.2476.722-19.1562-12.5315-31.6228-.7491l-6.25-.9646c-6.9515,17.025-22.8946,8.7512-33.9285,19.7751-15.5435-12.5436-10.7815-41.5982-13.3934-64.6559-26.3786-.2639-30.0719-30.0208-40.077-47.1068-10.0046,16.6598-33.4667,45.8357-59.8453,44.9734-2.6119,22.9462,2.1508,52.2041-13.3934,64.084-11.035-11.4957-26.9768-13.7997-33.9285-31.1216l-6.25,10.5949c-12.4665-12.3144-21.8959-9.3609-32.1425-10.5203c13.5963,20.5542,8.5753,40.7122,11.6073,61.041L41.4252,211.4867l25.513,12.4027l12.4998,9.2071.8928,17.899c-10.3789,11.7364-15.2545,14.7809-29.9989,22.0529l15.7131.8865c10.119,4.4624,20.2377,1.0174,30.3577,14.0589c7.4008,3.7342,18.1091,7.5388,27.6791,11.3191l.8929,17.0055c14.7409.4302,41.7972-12.1611,54.1783-18.3609-1.3388,35.9526,17.4886,84.5713,43.684,111.0183-.7192-3.9437.7554-5.6912,5.202-4.4624-24.7956-25.0332-37.5709-71.8893-35.8334-106.0992c12.0276,6.7814,37.7265,20.2585,52.3329,20.4568l.8927-16.9648c9.5697-3.3717,20.2774-6.7192,27.6792-10.1375c10.119-12.6086,18.6772-6.1273,28.7971-10.1581l12.5922,2.379c-14.7444-7.9012-14.9388-16.3533-25.3175-28.533Z" fill="#9c3403"/></g></g></svg>
