<svg id="e1pEl3s2JO81" xmlns="http://www.w3.org/2000/svg" xmlns:xlink="http://www.w3.org/1999/xlink" viewBox="0 0 196 282" shape-rendering="geometricPrecision" text-rendering="geometricPrecision"><g transform="translate(-101.744476-522.759644)"><path d="M104.1811,793.3718c-1.0488-1.3143-2.0092-3.7306-2.1344-5.3699-.2099-2.7486.3056-3.8071,6.6299-13.609l6.8577-10.629-.4538-6.1696c-.2495-3.3931-1.7564-9.5842-3.3484-13.7581-1.5919-4.1738-3.4818-10.2609-4.199-13.5276-1.3704-6.2387-2.023-17.4913-1.1001-18.9685.2978-.4766-.242-2.9069-1.1995-5.4007-2.6083-6.7936-3.5974-18.8724-1.7827-21.7769.2918-.467-.096-3.7583-.8619-7.314-1.6532-7.6757-.8-17.5955,1.8699-21.7415c1.3596-2.1107,1.7423-4.0742,1.5138-7.7638-.6689-10.8003,3.0891-24.5522,7.3873-27.0324c1.7044-.9836,2.1983-1.9698,3.3039-6.5979.7149-2.993,2.6115-8.377,4.2143-11.9643c2.6616-5.9568,3.1402-6.6257,5.5132-7.7058c2.1616-.984,3.5149-2.6361,8.0479-9.8242c6.3583-10.0827,9.3255-12.6386,13.8114-11.8978c2.7322.4512,2.9172.3198,5.6079-3.9869c3.2904-5.2666,9.3691-11.2913,12.7898-12.6765c1.4366-.5817,3.492-.5339,5.0063.1164c2.4413,1.0483,2.8149.8825,7.5149-3.3353c7.1926-6.4548,15.2619-12.2614,17.6401-12.6938c1.1376-.207,3.2224.2966,4.6328,1.1191c2.2179,1.2933,3.0106,1.2316,5.866-.457c5.9595-3.524,12.1147-5.9844,13.8659-5.5428.9462.2388,2.571.9999,3.6111,1.6917c1.604,1.0673,2.7802.7961,7.7556-1.7867c7.7456-4.0208,10.0709-4.3854,13.4167-2.1035c2.6187,1.7858,2.781,1.7585,7.1778-1.2021c2.4742-1.6661,5.3843-4.0004,6.4671-5.1871c5.2626-5.7681,9.2354-4.4998,13.2907,4.2437c2.6194,5.6471,4.36,13.3593,3.859,17.1006-.1894,1.4147.4512,2.8694,1.8185,4.1304c2.2595,2.0836,3.6429,8.2897,3.3279,14.9297-.1516,3.1979.1606,3.8646,2.4916,5.3209c3.0558,1.9092,3.94,5.3571,3.7861,14.7633-.0864,5.274.0401,5.605,2.5225,6.5979c2.2528.9012,2.7238,1.6033,3.4118,5.0899.7897,4.0015-.2079,17.6624-1.6014,21.9393-.5494,1.6851-.2117,2.684,1.4138,4.1829c1.1745,1.0831,2.261,3.1571,2.4145,4.6089.3105,2.9371-2.8269,13.9814-5.7006,20.0659-1.6557,3.5058-1.6826,4.3292-.2397,7.3419c1.5172,3.1676,1.4657,3.7784-.774,9.1926-1.3195,3.1897-4.0261,8.0145-6.0152,10.7227-3.5717,4.8632-3.6016,4.9594-2.4476,7.9084l1.1681,2.9853-4.9182,7.0927c-3.0404,4.3848-6.4252,8.3165-8.865,10.2974-3.3113,2.6885-3.9254,3.5073-3.8144,5.0862.0727,1.035-.4444,2.8049-1.1493,3.9331-1.7379,2.7816-11.3618,9.9158-17.7879,13.1857-4.4603,2.2698-5.2952,3.0024-5.5444,4.8647-.1615,1.2058-.8454,3.0758-1.5198,4.1553-1.2472,1.9963-9.5786,6.782-17.6403,10.132-2.4484,1.0176-5.0908,2.7431-5.8721,3.8345-1.6995,2.374-7.4743,5.7598-14.3064,8.3875-2.7403,1.0543-5.8113,2.7169-6.8243,3.6948-3.7395,3.6102-19.5448,7.843-40.0815,10.7339-3.8469.5416-9.2803,2.1384-12.1407,3.5681l-5.1779,2.588-4.3813,9.0062c-5.2704,10.8337-7.8426,13.4748-13.3184,13.6743-2.7765.1016-4.4134-.4734-8.1846-2.8748-2.5927-1.6509-5.5721-4.0771-6.6206-5.3911l-.0004.0027Z" transform="translate(.000001 0)" fill="#ca6515"/></g></svg>
