<svg id="eWgTO3cjJtA1" height="50px" width="50px" xmlns="http://www.w3.org/2000/svg"
     xmlns:xlink="http://www.w3.org/1999/xlink" viewBox="0 0 274 336" shape-rendering="geometricPrecision"
     text-rendering="geometricPrecision">
    <g transform="translate(-.651611 0)">
        <path d="M747.6985,321.7258c37.1592-19.1998,43.5224-54.6487,57.6546-81.1526-32.3141-14.7059-68.6558-4.9055-95.3329,11.2902c43.0657-42.4763,76.1705-85.1333,36.8823-129.0793-10.4708,8.7845-24.2203,14.6213-28.5988,27.6045-1.5554-25.9382,6.2989-76.5197-33.134-82.7473c20.6463,27.7494-22.7324,54.3708-31.717,81.6036-1.2224-13.7155-1.3979-27.4219-10.0749-41.2648-63.712,38.6572-3.8267,90.7762-11.0161,133.8605-10.2803-29.8354-39.1464-38.801-61.5751-63.793-33.4179,26.8013-24.0645,54.3521-10.1027,81.9814-9.5759,11.612-18.7232-1.1978-28.1436,1.6713c3.7413,40.8199,50.9947,85.1604,89.4709,75.2906-11.639,26.3713-26.4235,51.2585-39.3713,54.3784-3.3532.8082-5.4171,4.1812-4.6089,7.5344.6893,2.8622,3.2473,4.7851,6.0668,4.7851.4849,0,.9767-.0564,1.4684-.1754c18.968-4.5701,36.0196-34.4211,47.7107-60.967c31.2444,45.1822,108.2644,41.4649,135.963-16.1107-5.9162.2467-22.8707.3073-21.5414-4.7099Z"
              transform="translate(-531.888697-70.209308)" fill="#b00e19"/>
    </g>
</svg>
